<svg aria-hidden="true" width="40" height="40" viewBox="0 0 40 40" fill="none" xmlns="http://www.w3.org/2000/svg" class="⚙   as10 as11 as12 as13 as8k as42 as43 ⚙14vqmfp"><path d="M12.5 1A2.5 2.5 0 0 0 10 3.5v32.831a2.5 2.5 0 0 1-1.853 2.415l28-7.506A2.5 2.5 0 0 0 38 28.825V3.5A2.5 2.5 0 0 0 35.5 1h-23Z" fill="#00D924"></path><path d="M1.253 24.548a2.5 2.5 0 0 0-.915 3.415l5.477 9.486a2.5 2.5 0 0 0 2.812 1.165l26.147-7.006-10.187-17.645a2.5 2.5 0 0 0-3.415-.915l-19.919 11.5Z" fill="url(#pi_invoicing__a)"></path><path d="M8.402 38.663c.075-.013.15-.03.225-.05l26.147-7.005-10.187-17.645a2.5 2.5 0 0 0-3.415-.915L10 19.498V36.33a2.5 2.5 0 0 1-1.598 2.332Z" fill="url(#pi_invoicing__b)"></path><defs><linearGradient id="pi_invoicing__a" x1="17.39" y1="20.25" x2="17.389" y2="38" gradientUnits="userSpaceOnUse"><stop stop-color="#FFD748"></stop><stop offset="1" stop-color="#FFC148"></stop></linearGradient><linearGradient id="pi_invoicing__b" x1="21.589" y1="12.712" x2="21.588" y2="38.663" gradientUnits="userSpaceOnUse"><stop stop-color="#00A600"></stop><stop offset="1" stop-color="#00D924"></stop></linearGradient></defs></svg>